<?xml version="1.0" encoding="UTF-8"?><svg id="Layer_2" xmlns="http://www.w3.org/2000/svg" xmlns:xlink="http://www.w3.org/1999/xlink" viewBox="0 0 441.44 425.2"><defs><style></style><symbol id="_02_5" viewBox="0 0 303.07 202"><path d="m129.32,20.12C115.64,5.74,95.75-1.63,75.56.3c-21.05,2.02-39.18,13.67-49.75,31.97L0,76.98l67.1,38.77,44.02-76.24c5.32-8.82,12.47-15.5,18.2-19.39Z"/><path d="m299.96,103.08c-6.51-14.81-21.98-25.09-43.31-28.67-3.55-1.29-6.71-3.27-8.78-6.74l-20.29-35.11C215.87,12.27,194.82.11,171.27.04h-62.78c14.24,5.7,26.33,16.06,34.38,30.01l28.82,49.9c2.94,5.1,2.89,10.42.02,14.87-16.69,15.98-20.49,38.5-12.95,58.06,7.75,20.12,28.43,38.43,40.88,48.1,3.48,2.7,8.44-.35,7.6-4.67l-9.91-50.98c-2.25-14.49,15.89-23.42,29.46-25.58,13.57-2.16,35.46.51,39.07,19.02l9.02,43.54c.87,4.18,6.35,5.19,8.68,1.61,12.76-19.64,25.57-59.96,16.39-80.83Z"/></symbol><symbol id="New_Symbol_4" viewBox="0 0 461.11 444.14"><use width="303.07" height="202" transform="translate(103.73)" xlink:href="#_02_5"/><use width="303.07" height="202" transform="translate(94.38 455.15) rotate(-120)" xlink:href="#_02_5"/><use width="303.07" height="202" transform="translate(493.23 235.67) rotate(120)" xlink:href="#_02_5"/></symbol></defs><g id="Layer_6"><use width="461.11" height="444.14" transform="scale(.96)" xlink:href="#New_Symbol_4"/></g></svg>