<?xml version="1.0"?>
<!DOCTYPE svg PUBLIC "-//W3C//DTD SVG 1.1//EN" "http://www.w3.org/Graphics/SVG/1.1/DTD/svg11.dtd">
<svg width="87.22735786922306mm" height="60.71324859576656mm" viewBox="0 0 87.22735786922306 60.71324859576656" xmlns="http://www.w3.org/2000/svg" version="1.1">
<g id="Fusion" transform="translate(0.855170,2.850255) scale(1,-1)">
<path id="Fusion_f0000"  d="M 48.460378 -26.760311 C 49.27035555555555 -25.50442222222222 49.28446666666666 -24.002999999999997 48.454733 -22.563667 L 48.454733 -22.563667 C 49.28446666666666 -24.002999999999997 49.27035555555555 -25.50442222222222 48.460378 -26.760311 L 48.460378 -26.760311 Z " stroke="#191919" stroke-width="0.35 px" style="stroke-width:0.35;stroke-miterlimit:4;stroke-dasharray:none;stroke-linecap:square;fill:#cccccc;fill-opacity:0.5;fill-rule: evenodd"/>
<path id="Fusion_f0001"  d="M 48.454733 -22.563667 L 48.454733 -22.563667 L 46.451918054073936 -19.097978 L 46.451918054073936 -19.097978 L 48.454733 -22.563667 Z " stroke="#191919" stroke-width="0.35 px" style="stroke-width:0.35;stroke-miterlimit:4;stroke-dasharray:none;stroke-linecap:square;fill:#cccccc;fill-opacity:0.5;fill-rule: evenodd"/>
<path id="Fusion_f0002"  d="M 44.805600000000005 -43.146133 C 42.67764444444444 -37.62586666666666 43.75008888888889 -31.270222222222223 48.460378 -26.760311 L 48.460378 -26.760311 C 43.75008888888889 -31.270222222222223 42.67764444444444 -37.62586666666666 44.805600000000005 -43.146133 L 44.805600000000005 -43.146133 Z " stroke="#191919" stroke-width="0.35 px" style="stroke-width:0.35;stroke-miterlimit:4;stroke-dasharray:none;stroke-linecap:square;fill:#cccccc;fill-opacity:0.5;fill-rule: evenodd"/>
<path id="Fusion_f0003"  d="M 48.454733 -22.563667 L 46.451918054073936 -19.097978 L 40.72562905407395 -9.189156 L 64.228133 -9.189156 L 69.954422 -19.097978 C 70.53862222222222 -20.077288888888887 71.43044444444443 -20.636088888888885 72.432333 -21.000156 C 78.45213333333332 -22.010511111111107 82.81811111111111 -24.911755555555555 84.652556 -29.094289 C 87.24335555555555 -34.98426666666667 83.62808888888888 -46.363466666666675 80.026933 -51.906311 C 79.36935555555556 -52.916666666666664 77.82277777777777 -52.63162222222222 77.577244 -51.451933 L 75.0316 -39.163978 C 74.01277777777777 -33.940044444444446 67.83493333333334 -33.186511111111116 64.005178 -33.796111 C 60.175422222222224 -34.40571111111111 55.055911111111115 -36.925955555555554 55.690911 -41.015356 L 58.487733 -55.403044 C 58.7248 -56.62224444444444 57.324977777777775 -57.48302222222221 56.342844 -56.721022 C 52.82917777777778 -53.99193333333333 46.99282222222222 -48.824444444444445 44.805600000000005 -43.146133 C 42.67764444444444 -37.62586666666666 43.75008888888889 -31.270222222222223 48.460378 -26.760311 C 49.27035555555555 -25.50442222222222 49.28446666666666 -24.002999999999997 48.454733 -22.563667 Z " stroke="#191919" stroke-width="0.35 px" style="stroke-width:0.35;stroke-miterlimit:4;stroke-dasharray:none;stroke-linecap:square;fill:#cccccc;fill-opacity:0.5;fill-rule: evenodd"/>
<path id="Fusion_f0004"  d="M 48.454733 -22.563667 C 49.28446666666666 -24.002999999999997 49.27035555555555 -25.50442222222222 48.460378 -26.760311 C 43.75008888888889 -31.270222222222223 42.67764444444444 -37.62586666666666 44.805600000000005 -43.146133 C 46.99282222222222 -48.824444444444445 52.82917777777778 -53.99193333333333 56.342844 -56.721022 C 57.324977777777775 -57.48302222222221 58.7248 -56.62224444444444 58.487733 -55.403044 L 55.690911 -41.015356 C 55.055911111111115 -36.925955555555554 60.175422222222224 -34.40571111111111 64.005178 -33.796111 C 67.83493333333334 -33.186511111111116 74.01277777777777 -33.940044444444446 75.0316 -39.163978 L 77.577244 -51.451933 C 77.82277777777777 -52.63162222222222 79.36935555555556 -52.916666666666664 80.026933 -51.906311 C 83.62808888888888 -46.363466666666675 87.24335555555555 -34.98426666666667 84.652556 -29.094289 C 82.81811111111111 -24.911755555555555 78.45213333333332 -22.010511111111107 72.432333 -21.000156 C 71.43044444444443 -20.636088888888885 70.53862222222222 -20.077288888888887 69.954422 -19.097978 L 64.228133 -9.189156 L 40.72562905407394 -9.189156 L 46.451918054073936 -19.097978 L 48.454733 -22.563667 Z " stroke="#191919" stroke-width="0.35 px" style="stroke-width:0.35;stroke-miterlimit:4;stroke-dasharray:none;stroke-linecap:square;fill:#cccccc;fill-opacity:0.5;fill-rule: evenodd"/>
<path id="Fusion_f0005"  d="M 46.451918054073936 -19.097978 L 46.451918054073936 -19.097978 L 40.72562905407394 -9.189156 L 40.72562905407394 -9.189156 L 46.451918054073936 -19.097978 Z " stroke="#191919" stroke-width="0.35 px" style="stroke-width:0.35;stroke-miterlimit:4;stroke-dasharray:none;stroke-linecap:square;fill:#cccccc;fill-opacity:0.5;fill-rule: evenodd"/>
<path id="Fusion_f0006"  d="M 56.342844 -56.721022 C 52.82917777777778 -53.99193333333333 46.99282222222222 -48.824444444444445 44.805600000000005 -43.146133 L 44.805600000000005 -43.146133 C 46.99282222222222 -48.824444444444445 52.82917777777778 -53.99193333333333 56.342844 -56.721022 L 56.342844 -56.721022 Z " stroke="#191919" stroke-width="0.35 px" style="stroke-width:0.35;stroke-miterlimit:4;stroke-dasharray:none;stroke-linecap:square;fill:#cccccc;fill-opacity:0.5;fill-rule: evenodd"/>
<path id="Fusion_f0007"  d="M 58.487733 -55.403044 C 58.7248 -56.62224444444444 57.324977777777775 -57.48302222222221 56.342844 -56.721022 L 56.342844 -56.721022 C 57.324977777777775 -57.48302222222221 58.7248 -56.62224444444444 58.487733 -55.403044 L 58.487733 -55.403044 Z " stroke="#191919" stroke-width="0.35 px" style="stroke-width:0.35;stroke-miterlimit:4;stroke-dasharray:none;stroke-linecap:square;fill:#cccccc;fill-opacity:0.5;fill-rule: evenodd"/>
<path id="Fusion_f0008"  d="M 55.690911 -41.015356 L 58.487733 -55.403044 L 58.487733 -55.403044 L 55.690911 -41.015356 L 55.690911 -41.015356 Z " stroke="#191919" stroke-width="0.35 px" style="stroke-width:0.35;stroke-miterlimit:4;stroke-dasharray:none;stroke-linecap:square;fill:#cccccc;fill-opacity:0.5;fill-rule: evenodd"/>
<path id="Fusion_f0009"  d="M 64.005178 -33.796111 C 60.175422222222224 -34.40571111111111 55.055911111111115 -36.925955555555554 55.690911 -41.015356 L 55.690911 -41.015356 C 55.055911111111115 -36.925955555555554 60.175422222222224 -34.40571111111111 64.005178 -33.796111 L 64.005178 -33.796111 Z " stroke="#191919" stroke-width="0.35 px" style="stroke-width:0.35;stroke-miterlimit:4;stroke-dasharray:none;stroke-linecap:square;fill:#cccccc;fill-opacity:0.5;fill-rule: evenodd"/>
<path id="Fusion_f0010"  d="M 75.0316 -39.163978 C 74.01277777777777 -33.940044444444446 67.83493333333334 -33.186511111111116 64.005178 -33.796111 L 64.005178 -33.796111 C 67.83493333333334 -33.186511111111116 74.01277777777777 -33.940044444444446 75.0316 -39.163978 L 75.0316 -39.163978 Z " stroke="#191919" stroke-width="0.35 px" style="stroke-width:0.35;stroke-miterlimit:4;stroke-dasharray:none;stroke-linecap:square;fill:#cccccc;fill-opacity:0.5;fill-rule: evenodd"/>
<path id="Fusion_f0011"  d="M 77.577244 -51.451933 L 75.0316 -39.163978 L 75.0316 -39.163978 L 77.577244 -51.451933 L 77.577244 -51.451933 Z " stroke="#191919" stroke-width="0.35 px" style="stroke-width:0.35;stroke-miterlimit:4;stroke-dasharray:none;stroke-linecap:square;fill:#cccccc;fill-opacity:0.5;fill-rule: evenodd"/>
<path id="Fusion_f0012"  d="M 80.026933 -51.906311 C 79.36935555555556 -52.916666666666664 77.82277777777777 -52.63162222222222 77.577244 -51.451933 L 77.577244 -51.451933 C 77.82277777777777 -52.63162222222222 79.36935555555556 -52.916666666666664 80.026933 -51.906311 L 80.026933 -51.906311 Z " stroke="#191919" stroke-width="0.35 px" style="stroke-width:0.35;stroke-miterlimit:4;stroke-dasharray:none;stroke-linecap:square;fill:#cccccc;fill-opacity:0.5;fill-rule: evenodd"/>
<path id="Fusion_f0013"  d="M 84.652556 -29.094289 C 87.24335555555555 -34.98426666666667 83.62808888888888 -46.363466666666675 80.026933 -51.906311 L 80.026933 -51.906311 C 83.62808888888888 -46.363466666666675 87.24335555555555 -34.98426666666667 84.652556 -29.094289 L 84.652556 -29.094289 Z " stroke="#191919" stroke-width="0.35 px" style="stroke-width:0.35;stroke-miterlimit:4;stroke-dasharray:none;stroke-linecap:square;fill:#cccccc;fill-opacity:0.5;fill-rule: evenodd"/>
<path id="Fusion_f0014"  d="M 72.432333 -21.000156 C 78.45213333333332 -22.010511111111107 82.81811111111111 -24.911755555555555 84.652556 -29.094289 L 84.652556 -29.094289 C 82.81811111111111 -24.911755555555555 78.45213333333332 -22.010511111111107 72.432333 -21.000156 L 72.432333 -21.000156 Z " stroke="#191919" stroke-width="0.35 px" style="stroke-width:0.35;stroke-miterlimit:4;stroke-dasharray:none;stroke-linecap:square;fill:#cccccc;fill-opacity:0.5;fill-rule: evenodd"/>
<path id="Fusion_f0015"  d="M 69.954422 -19.097978 C 70.53862222222222 -20.077288888888887 71.43044444444443 -20.636088888888885 72.432333 -21.000156 L 72.432333 -21.000156 C 71.43044444444443 -20.636088888888885 70.53862222222222 -20.077288888888887 69.954422 -19.097978 L 69.954422 -19.097978 Z " stroke="#191919" stroke-width="0.35 px" style="stroke-width:0.35;stroke-miterlimit:4;stroke-dasharray:none;stroke-linecap:square;fill:#cccccc;fill-opacity:0.5;fill-rule: evenodd"/>
<path id="Fusion_f0016"  d="M 64.228133 -9.189156 L 64.228133 -9.189156 L 69.954422 -19.097978 L 69.954422 -19.097978 L 64.228133 -9.189156 Z " stroke="#191919" stroke-width="0.35 px" style="stroke-width:0.35;stroke-miterlimit:4;stroke-dasharray:none;stroke-linecap:square;fill:#cccccc;fill-opacity:0.5;fill-rule: evenodd"/>
<path id="Fusion_f0017"  d="M 32.53767728481341 -9.107311 C 39.84681539303172 3.554120863217012 56.913087807210765 3.468864008648561 64.228133 -9.189156 L 40.72562905407395 -9.189156 C 33.43841956877964 3.4206968499858927 14.565480878763353 3.5059407215332854 7.284156000000008 -9.107311000000001 L 32.53767728481341 -9.107311 Z " stroke="#191919" stroke-width="0.35 px" style="stroke-width:0.35;stroke-miterlimit:4;stroke-dasharray:none;stroke-linecap:square;fill:#cccccc;fill-opacity:0.5;fill-rule: evenodd"/>
<path id="Fusion_f0018"  d="M 64.228133 -9.189156 C 55.64289891155519 5.66681030046648 41.115978578930225 5.752659591536995 32.53767728481341 -9.107311000000003 L 7.284156 -9.107310999999996 C 15.849104708182999 5.729529250517917 32.15375834282905 5.643686192341162 40.72562905407394 -9.189156000000002 L 64.228133 -9.189156 Z " stroke="#191919" stroke-width="0.35 px" style="stroke-width:0.35;stroke-miterlimit:4;stroke-dasharray:none;stroke-linecap:square;fill:#cccccc;fill-opacity:0.5;fill-rule: evenodd"/>
<path id="Fusion_f0019"  d="M 40.72562905407394 -9.189156 C 32.15375834282905 5.643686192341164 15.849104708182999 5.7295292505179205 7.284155999999999 -9.107310999999994 L 7.284155999999999 -9.107311 C 14.56548087876335 3.5059407215332854 33.43841956877965 3.4206968499858927 40.725629054073956 -9.189156 L 40.72562905407394 -9.189156 Z " stroke="#191919" stroke-width="0.35 px" style="stroke-width:0.35;stroke-miterlimit:4;stroke-dasharray:none;stroke-linecap:square;fill:#cccccc;fill-opacity:0.5;fill-rule: evenodd"/>
<path id="Fusion_f0020"  d="M 32.53767728481341 -9.107311 L 32.53767728481341 -9.107311 C 39.84681539303172 3.554120863217012 56.913087807210765 3.468864008648561 64.228133 -9.189156 L 64.228133 -9.189156 C 55.64289891155519 5.66681030046648 41.115978578930225 5.752659591536995 32.53767728481341 -9.107311000000003 Z " stroke="#191919" stroke-width="0.35 px" style="stroke-width:0.35;stroke-miterlimit:4;stroke-dasharray:none;stroke-linecap:square;fill:#cccccc;fill-opacity:0.5;fill-rule: evenodd"/>
<path id="Fusion_f0021"  d="M 7.284155999999999 -9.107311 L 0.0 -21.725467 L 18.937111 -32.667222 L 25.253521284813406 -21.725467000000005 L 32.53767728481341 -9.107311 L 7.284155999999999 -9.107311 Z " stroke="#191919" stroke-width="0.35 px" style="stroke-width:0.35;stroke-miterlimit:4;stroke-dasharray:none;stroke-linecap:square;fill:#cccccc;fill-opacity:0.5;fill-rule: evenodd"/>
<path id="Fusion_f0022"  d="M 0.0 -21.725467 L 18.937111 -32.667222 L 25.253521284813406 -21.725467000000005 L 32.53767728481341 -9.107311 L 7.284156 -9.107310999999996 L 0.0 -21.725467 Z " stroke="#191919" stroke-width="0.35 px" style="stroke-width:0.35;stroke-miterlimit:4;stroke-dasharray:none;stroke-linecap:square;fill:#cccccc;fill-opacity:0.5;fill-rule: evenodd"/>
<path id="Fusion_f0023"  d="M -8.881784197001252e-16 -21.725467000000002 L 7.284156 -9.107311 L 7.284155999999999 -9.107311 L 0.0 -21.725467 L 0.0 -21.725467 Z " stroke="#191919" stroke-width="0.35 px" style="stroke-width:0.35;stroke-miterlimit:4;stroke-dasharray:none;stroke-linecap:square;fill:#cccccc;fill-opacity:0.5;fill-rule: evenodd"/>
<path id="Fusion_f0024"  d="M 32.53767728481341 -9.107310999999997 L 25.253521284813406 -21.725467000000005 L 25.253521284813406 -21.725467000000005 L 32.53767728481341 -9.107311 L 32.53767728481341 -9.107311 Z " stroke="#191919" stroke-width="0.35 px" style="stroke-width:0.35;stroke-miterlimit:4;stroke-dasharray:none;stroke-linecap:square;fill:#cccccc;fill-opacity:0.5;fill-rule: evenodd"/>
<path id="Fusion_f0025"  d="M 18.937111 -32.667222 L 0.0 -21.725467 L 0.0 -21.725467 L 18.937111 -32.667222 L 18.937111 -32.667222 Z " stroke="#191919" stroke-width="0.35 px" style="stroke-width:0.35;stroke-miterlimit:4;stroke-dasharray:none;stroke-linecap:square;fill:#cccccc;fill-opacity:0.5;fill-rule: evenodd"/>
<path id="Fusion_f0026"  d="M 25.253521284813406 -21.725467000000002 L 18.937111 -32.667222 L 18.937111 -32.667222 L 25.253521284813406 -21.725467000000005 L 25.253521284813406 -21.725467000000005 Z " stroke="#191919" stroke-width="0.35 px" style="stroke-width:0.35;stroke-miterlimit:4;stroke-dasharray:none;stroke-linecap:square;fill:#cccccc;fill-opacity:0.5;fill-rule: evenodd"/>
<title>b'Fusion'</title>
</g>
</svg>