<?xml version="1.0" encoding="UTF-8" standalone="no"?>
<!-- Created with Inkscape (http://www.inkscape.org/) -->

<svg
   width="297mm"
   height="210mm"
   viewBox="0 0 297 210"
   version="1.1"
   id="svg1418"
   xml:space="preserve"
   inkscape:version="1.2.2 (b0a8486, 2022-12-01)"
   sodipodi:docname="repair_v2-Shape2DView3.svg"
   xmlns:inkscape="http://www.inkscape.org/namespaces/inkscape"
   xmlns:sodipodi="http://sodipodi.sourceforge.net/DTD/sodipodi-0.dtd"
   xmlns:xlink="http://www.w3.org/1999/xlink"
   xmlns="http://www.w3.org/2000/svg"
   xmlns:svg="http://www.w3.org/2000/svg"><sodipodi:namedview
     id="namedview1420"
     pagecolor="#ffffff"
     bordercolor="#666666"
     borderopacity="1.0"
     inkscape:showpageshadow="2"
     inkscape:pageopacity="0.0"
     inkscape:pagecheckerboard="0"
     inkscape:deskcolor="#d1d1d1"
     inkscape:document-units="mm"
     showgrid="false"
     showguides="true"
     inkscape:zoom="0.47559578"
     inkscape:cx="579.27343"
     inkscape:cy="335.36883"
     inkscape:window-width="1920"
     inkscape:window-height="975"
     inkscape:window-x="0"
     inkscape:window-y="0"
     inkscape:window-maximized="1"
     inkscape:current-layer="Page" /><defs
     id="defs1415"><style
       id="style3484" /><symbol
       id="_02_5"
       viewBox="0 0 303.07 202"><path
         d="M 129.32,20.12 C 115.64,5.74 95.75,-1.63 75.56,0.3 54.51,2.32 36.38,13.97 25.81,32.27 L 0,76.98 67.1,115.75 111.12,39.51 c 5.32,-8.82 12.47,-15.5 18.2,-19.39 z"
         id="path3486" /><path
         d="M 299.96,103.08 C 293.45,88.27 277.98,77.99 256.65,74.41 253.1,73.12 249.94,71.14 247.87,67.67 L 227.58,32.56 C 215.87,12.27 194.82,0.11 171.27,0.04 h -62.78 c 14.24,5.7 26.33,16.06 34.38,30.01 l 28.82,49.9 c 2.94,5.1 2.89,10.42 0.02,14.87 -16.69,15.98 -20.49,38.5 -12.95,58.06 7.75,20.12 28.43,38.43 40.88,48.1 3.48,2.7 8.44,-0.35 7.6,-4.67 l -9.91,-50.98 c -2.25,-14.49 15.89,-23.42 29.46,-25.58 13.57,-2.16 35.46,0.51 39.07,19.02 l 9.02,43.54 c 0.87,4.18 6.35,5.19 8.68,1.61 12.76,-19.64 25.57,-59.96 16.39,-80.83 z"
         id="path3488" /></symbol><symbol
       id="New_Symbol_4"
       viewBox="0 0 461.11 444.14"><use
         width="303.07001"
         height="202"
         transform="translate(103.73)"
         xlink:href="#_02_5"
         id="use3491" /><use
         width="303.07001"
         height="202"
         transform="rotate(-120,178.58049,200.32984)"
         xlink:href="#_02_5"
         id="use3493" /><use
         width="303.07001"
         height="202"
         transform="rotate(120,178.58293,260.21824)"
         xlink:href="#_02_5"
         id="use3495" /></symbol></defs><g
     inkscape:label="Layer 1"
     inkscape:groupmode="layer"
     id="layer1"><g
       id="Page"
       inkscape:label="TechDraw"
       transform="matrix(0.1,0,0,0.1,-10.671388,34.499713)"><g
         fill="none"
         stroke="#000000"
         fill-rule="evenodd"
         stroke-linejoin="bevel"
         stroke-linecap="square"
         id="DrawingContent"
         stroke-width="1"
         transform="translate(-747.60902,194.52177)"><g
           fill="#ffffff"
           fill-opacity="1"
           stroke="none"
           font-style="normal"
           transform="translate(1485,1050)"
           font-family="'Sans Serif'"
           font-size="31.75px"
           font-weight="400"
           id="g2036" /><g
           fill="none"
           stroke="#000000"
           stroke-opacity="1"
           stroke-linejoin="bevel"
           stroke-linecap="round"
           font-style="normal"
           transform="translate(1485,1050)"
           font-family="'Sans Serif'"
           font-size="31.75px"
           font-weight="400"
           stroke-width="2.5"
           id="g2052" /><g
           fill="none"
           stroke="#000000"
           stroke-opacity="1"
           stroke-linejoin="bevel"
           stroke-linecap="round"
           font-style="normal"
           transform="translate(1485,1050)"
           font-family="'Sans Serif'"
           font-size="31.75px"
           font-weight="400"
           stroke-width="2.5"
           id="g2056"
           style="fill:#7f7e7f;fill-opacity:1"><path
             fill-rule="evenodd"
             vector-effect="none"
             d="m -20.5584,-182.996 57.2629,99.0881 20.0281,34.6569 c 8.2974,14.3933 8.1563,29.4075 0.0565,41.96639 C 9.6862,37.8145 -1.03825,101.371 20.2413,156.574 c 21.8722,56.783 80.2357,108.458 115.3727,135.749 9.821,7.62 23.819,-0.988 21.449,-13.18 L 129.094,135.266 c -6.35,-40.8942 44.846,-66.0966 83.143,-72.1926 38.298,-6.096 100.076,1.4393 110.264,53.6786 l 25.457,122.88 c 2.455,11.797 17.921,14.647 24.497,4.543 C 408.466,188.747 444.619,74.9549 418.711,16.0552 400.366,-25.7702 356.707,-54.7826 296.509,-64.8862 286.49,-68.5268 277.572,-74.1148 271.73,-83.9079 L 214.467,-182.996 C 171.19267,-257.87789 112.82266,-295.23344 54.99371,-294.83946 l -245.0809,0.19034 c 61.83386,-1.37214 125.761343,35.91715 169.52879,111.65312"
             id="path2054"
             sodipodi:nodetypes="ccccccccccccccccccc"
             style="fill:#7f7e7f;fill-opacity:1;stroke:none" /></g><g
           fill="none"
           stroke="#000000"
           stroke-opacity="1"
           stroke-linejoin="bevel"
           stroke-linecap="round"
           font-style="normal"
           transform="translate(1485,1050)"
           font-family="'Sans Serif'"
           font-size="31.75px"
           font-weight="400"
           stroke-width="2.5"
           id="g2060" /><g
           fill="none"
           stroke="#000000"
           stroke-opacity="1"
           stroke-linejoin="bevel"
           stroke-linecap="round"
           font-style="normal"
           transform="translate(1485,1050)"
           font-family="'Sans Serif'"
           font-size="31.75px"
           font-weight="400"
           stroke-width="2.5"
           id="g2064" /><g
           fill="none"
           stroke="#000000"
           stroke-opacity="1"
           stroke-linejoin="bevel"
           stroke-linecap="round"
           font-style="normal"
           transform="translate(1485,1050)"
           font-family="'Sans Serif'"
           font-size="31.75px"
           font-weight="400"
           stroke-width="2.5"
           id="g2068" /><g
           fill="none"
           stroke="#000000"
           stroke-opacity="1"
           stroke-linejoin="bevel"
           stroke-linecap="round"
           font-style="normal"
           transform="translate(1485,1050)"
           font-family="'Sans Serif'"
           font-size="31.75px"
           font-weight="400"
           stroke-width="2.5"
           id="g2072" /><g
           fill="none"
           stroke="#000000"
           stroke-opacity="1"
           stroke-linejoin="bevel"
           stroke-linecap="round"
           font-style="normal"
           transform="translate(1485,1050)"
           font-family="'Sans Serif'"
           font-size="31.75px"
           font-weight="400"
           stroke-width="2.5"
           id="g2076" /><g
           fill="none"
           stroke="#000000"
           stroke-opacity="1"
           stroke-linejoin="bevel"
           stroke-linecap="round"
           font-style="normal"
           transform="translate(1485,1050)"
           font-family="'Sans Serif'"
           font-size="31.75px"
           font-weight="400"
           stroke-width="2.5"
           id="g2080" /><g
           fill="none"
           stroke="#000000"
           stroke-opacity="1"
           stroke-linejoin="bevel"
           stroke-linecap="round"
           font-style="normal"
           transform="translate(1485,1050)"
           font-family="'Sans Serif'"
           font-size="31.75px"
           font-weight="400"
           stroke-width="2.5"
           id="g2084" /><g
           fill="none"
           stroke="#000000"
           stroke-opacity="1"
           stroke-linejoin="bevel"
           stroke-linecap="round"
           font-style="normal"
           transform="translate(1485,1050)"
           font-family="'Sans Serif'"
           font-size="31.75px"
           font-weight="400"
           stroke-width="2.5"
           id="g2088" /><g
           fill="none"
           stroke="#000000"
           stroke-opacity="1"
           stroke-linejoin="bevel"
           stroke-linecap="round"
           font-style="normal"
           transform="translate(1485,1050)"
           font-family="'Sans Serif'"
           font-size="31.75px"
           font-weight="400"
           stroke-width="2.5"
           id="g2092" /><g
           fill="none"
           stroke="#000000"
           stroke-opacity="1"
           stroke-linejoin="bevel"
           stroke-linecap="round"
           font-style="normal"
           transform="translate(1485,1050)"
           font-family="'Sans Serif'"
           font-size="31.75px"
           font-weight="400"
           stroke-width="2.5"
           id="g2096" /><g
           fill="none"
           stroke="#000000"
           stroke-opacity="1"
           stroke-linejoin="bevel"
           stroke-linecap="round"
           font-style="normal"
           transform="translate(1485,1050)"
           font-family="'Sans Serif'"
           font-size="31.75px"
           font-weight="400"
           stroke-width="2.5"
           id="g2100" /><g
           fill="none"
           stroke="#000000"
           stroke-opacity="1"
           stroke-linejoin="bevel"
           stroke-linecap="round"
           font-style="normal"
           transform="translate(1485,1050)"
           font-family="'Sans Serif'"
           font-size="31.75px"
           font-weight="400"
           stroke-width="2.5"
           id="g2104" /><g
           fill="none"
           stroke="#000000"
           stroke-opacity="1"
           stroke-linejoin="bevel"
           stroke-linecap="round"
           font-style="normal"
           transform="translate(1485,1050)"
           font-family="'Sans Serif'"
           font-size="31.75px"
           font-weight="400"
           stroke-width="2.5"
           id="g2112" /><g
           fill="none"
           stroke="#000000"
           stroke-opacity="1"
           stroke-linejoin="bevel"
           stroke-linecap="round"
           font-style="normal"
           transform="translate(1485,1050)"
           font-family="'Sans Serif'"
           font-size="31.75px"
           font-weight="400"
           stroke-width="2.5"
           id="g2120" /><g
           fill="none"
           stroke="#000000"
           stroke-opacity="1"
           stroke-linejoin="bevel"
           stroke-linecap="round"
           font-style="normal"
           transform="translate(1485,1050)"
           font-family="'Sans Serif'"
           font-size="31.75px"
           font-weight="400"
           stroke-width="2.5"
           id="g2124"
           style="fill:#7f7e7f;fill-opacity:1"><path
             fill-rule="evenodd"
             vector-effect="none"
             d="m -354.973,-183.815 -72.842,126.182 189.371,109.4175 63.165,-109.4175 72.841,-126.182 c 11.21599,-19.42906 22.361413,-35.32077 36.725532,-51.14289 -87.239822,-70.9139 -228.546902,-54.02969 -289.260532,51.14289 z"
             id="path2122"
             sodipodi:nodetypes="ccccccc"
             style="fill:#7f7e7f;fill-opacity:1;stroke:none" /></g><g
           fill="none"
           stroke="#000000"
           stroke-opacity="1"
           stroke-linejoin="bevel"
           stroke-linecap="round"
           font-style="normal"
           transform="translate(1485,1050)"
           font-family="'Sans Serif'"
           font-size="31.75px"
           font-weight="400"
           stroke-width="2.5"
           id="g2132" /><g
           fill="none"
           stroke="#000000"
           stroke-opacity="1"
           stroke-linejoin="bevel"
           stroke-linecap="round"
           font-style="normal"
           transform="translate(1485,1050)"
           font-family="'Sans Serif'"
           font-size="31.75px"
           font-weight="400"
           stroke-width="2.5"
           id="g2136" /><g
           fill="none"
           stroke="#000000"
           stroke-opacity="1"
           stroke-linejoin="bevel"
           stroke-linecap="round"
           font-style="normal"
           transform="translate(1485,1050)"
           font-family="'Sans Serif'"
           font-size="31.75px"
           font-weight="400"
           stroke-width="2.5"
           id="g2140" /><g
           fill="none"
           stroke="#000000"
           stroke-opacity="1"
           stroke-linejoin="bevel"
           stroke-linecap="round"
           font-style="normal"
           transform="translate(1485,1050)"
           font-family="'Sans Serif'"
           font-size="31.75px"
           font-weight="400"
           stroke-width="2.5"
           id="g2144" /><g
           fill="none"
           stroke="#000000"
           stroke-opacity="1"
           stroke-linejoin="bevel"
           stroke-linecap="round"
           font-style="normal"
           transform="translate(1485,1050)"
           font-family="'Sans Serif'"
           font-size="31.75px"
           font-weight="400"
           stroke-width="2.5"
           id="g2148" /><g
           fill="none"
           stroke="#000000"
           stroke-opacity="1"
           stroke-linejoin="bevel"
           stroke-linecap="round"
           font-style="normal"
           transform="translate(1485,1050)"
           font-family="'Sans Serif'"
           font-size="31.75px"
           font-weight="400"
           stroke-width="2.5"
           id="g2152" /><g
           fill="none"
           stroke="#000000"
           stroke-opacity="1"
           stroke-linejoin="bevel"
           stroke-linecap="round"
           font-style="normal"
           transform="translate(1485,1050)"
           font-family="'Sans Serif'"
           font-size="31.75px"
           font-weight="400"
           stroke-width="2.5"
           id="g2156" /><g
           fill="none"
           stroke="#000000"
           stroke-opacity="1"
           stroke-linejoin="bevel"
           stroke-linecap="round"
           font-style="normal"
           transform="translate(1485,1050)"
           font-family="'Sans Serif'"
           font-size="31.75px"
           font-weight="400"
           stroke-width="2.5"
           id="g2160" /></g><use
         width="461.10999"
         height="444.14001"
         transform="matrix(2.54,0,0,2.54,1666.3832,568.88117)"
         xlink:href="#New_Symbol_4"
         id="use3500" /><g
         id="g595"><path
           id="Fusion_f0003"
           d="m 2674.6674,143.20357 -20.0281,-34.65689 -57.2629,-99.08822 h 235.025 l 57.2629,99.08822 c 5.842,9.79311 14.7602,15.38111 24.7791,19.02178 60.198,10.10355 103.8578,39.116 122.2023,80.94133 25.908,58.89978 -10.2447,172.69178 -46.2563,228.12022 -6.5757,10.10356 -22.0415,7.25311 -24.4969,-4.54378 l -25.4564,-122.87955 c -10.1882,-52.23934 -71.9667,-59.77467 -110.2642,-53.67867 -38.2976,6.096 -89.4927,31.29845 -83.1427,72.19245 l 27.9682,143.87688 c 2.3707,12.192 -11.6275,20.79978 -21.4489,13.17978 -35.1366,-27.29089 -93.5002,-78.96578 -115.3724,-135.74889 -21.2796,-55.20266 -10.5551,-118.75911 36.5478,-163.85822 8.0998,-12.55889 8.2409,-27.57311 -0.06,-41.96644 z"
           stroke="#191919"
           stroke-width="0.35 px"
           style="fill:#cccccc;fill-opacity:0.5;fill-rule:evenodd;stroke-width:3.5;stroke-linecap:square;stroke-miterlimit:4;stroke-dasharray:none" /><path
           id="Fusion_f0017"
           d="m 2515.49,8.64001 c 73.0914,-126.61432 243.7541,-125.76175 316.9045,0.81845 h -235.025 C 2524.4974,-116.64007 2335.768,-117.49251 2262.9548,8.64001 Z"
           stroke="#191919"
           stroke-width="0.35 px"
           style="fill:#cccccc;fill-opacity:0.5;fill-rule:evenodd;stroke-width:3.5;stroke-linecap:square;stroke-miterlimit:4;stroke-dasharray:none" /><path
           id="Fusion_f0021"
           d="m 2262.9556,8.64001 -72.8416,126.18156 189.3711,109.41755 63.1641,-109.41755 72.8416,-126.18156 z"
           stroke="#191919"
           stroke-width="0.35 px"
           style="fill:#cccccc;fill-opacity:0.5;fill-rule:evenodd;stroke-width:3.5;stroke-linecap:square;stroke-miterlimit:4;stroke-dasharray:none" /></g><g
         id="g567"><path
           id="Fusion_f0004"
           d="m 674.66744,143.20357 c 8.29734,14.39333 8.15623,29.40755 0.056,41.96644 -47.10289,45.09911 -57.82734,108.65556 -36.54778,163.85822 21.87222,56.78311 80.23578,108.458 115.37244,135.74889 9.82134,7.62 23.81956,-0.9878 21.44889,-13.17978 L 747.02877,327.72046 c -6.35,-40.894 44.84511,-66.09645 83.14267,-72.19245 38.29755,-6.096 100.076,1.43933 110.26422,53.67867 l 25.45644,122.87955 c 2.45534,11.79689 17.92112,14.64734 24.49689,4.54378 36.01161,-55.42844 72.16421,-169.22044 46.25621,-228.12022 -18.3444,-41.82533 -62.00421,-70.83778 -122.20221,-80.94133 -10.01889,-3.64067 -18.93711,-9.22867 -24.77911,-19.02178 L 832.40099,9.45846 H 597.3764 l 57.26289,99.08822 z"
           stroke="#191919"
           stroke-width="0.35 px"
           style="fill:#cccccc;fill-opacity:0.5;fill-rule:evenodd;stroke-width:3.5;stroke-linecap:square;stroke-miterlimit:4;stroke-dasharray:none" /><path
           id="Fusion_f0018"
           d="M 832.39453,9.45846 C 746.54219,-139.1012 601.27299,-139.9597 515.48997,8.64001 H 262.95476 c 85.64949,-148.3684 248.69602,-147.50997 334.41473,0.81845 z"
           stroke="#191919"
           stroke-width="0.35 px"
           style="fill:#cccccc;fill-opacity:0.5;fill-rule:evenodd;stroke-width:3.5;stroke-linecap:square;stroke-miterlimit:4;stroke-dasharray:none" /><path
           id="Fusion_f0022"
           d="M 190.114,134.82157 379.48515,244.23912 442.64925,134.82157 515.49081,8.64001 H 262.9556 Z"
           stroke="#191919"
           stroke-width="0.35 px"
           style="fill:#cccccc;fill-opacity:0.5;fill-rule:evenodd;stroke-width:3.5;stroke-linecap:square;stroke-miterlimit:4;stroke-dasharray:none" /></g><g
         id="g590"><path
           id="Fusion_f0000"
           d="m 1674.7195,185.17001 c 8.0998,-12.55889 8.2409,-27.57311 -0.056,-41.96644 v 0 c 8.2973,14.39333 8.1562,29.40755 0.056,41.96644 z"
           stroke="#191919"
           stroke-width="0.35 px"
           style="fill:#cccccc;fill-opacity:0.5;fill-rule:evenodd;stroke-width:3.5;stroke-linecap:square;stroke-miterlimit:4;stroke-dasharray:none" /><path
           id="Fusion_f0001"
           d="m 1674.663,143.20357 v 0 l -20.0281,-34.65689 v 0 z"
           stroke="#191919"
           stroke-width="0.35 px"
           style="fill:#cccccc;fill-opacity:0.5;fill-rule:evenodd;stroke-width:3.5;stroke-linecap:square;stroke-miterlimit:4;stroke-dasharray:none" /><path
           id="Fusion_f0002"
           d="m 1638.1717,349.02823 c -21.2796,-55.20266 -10.5551,-118.75911 36.5478,-163.85822 v 0 c -47.1029,45.09911 -57.8274,108.65556 -36.5478,163.85822 z"
           stroke="#191919"
           stroke-width="0.35 px"
           style="fill:#cccccc;fill-opacity:0.5;fill-rule:evenodd;stroke-width:3.5;stroke-linecap:square;stroke-miterlimit:4;stroke-dasharray:none" /><path
           id="Fusion_f0005"
           d="m 1654.6349,108.54668 v 0 L 1597.372,9.45846 v 0 z"
           stroke="#191919"
           stroke-width="0.35 px"
           style="fill:#cccccc;fill-opacity:0.5;fill-rule:evenodd;stroke-width:3.5;stroke-linecap:square;stroke-miterlimit:4;stroke-dasharray:none" /><path
           id="Fusion_f0006"
           d="m 1753.5441,484.77712 c -35.1366,-27.29089 -93.5002,-78.96578 -115.3724,-135.74889 v 0 c 21.8722,56.78311 80.2358,108.458 115.3724,135.74889 z"
           stroke="#191919"
           stroke-width="0.35 px"
           style="fill:#cccccc;fill-opacity:0.5;fill-rule:evenodd;stroke-width:3.5;stroke-linecap:square;stroke-miterlimit:4;stroke-dasharray:none" /><path
           id="Fusion_f0007"
           d="m 1774.993,471.59734 c 2.3707,12.192 -11.6275,20.79978 -21.4489,13.17978 v 0 c 9.8214,7.62 23.8196,-0.9878 21.4489,-13.17978 z"
           stroke="#191919"
           stroke-width="0.35 px"
           style="fill:#cccccc;fill-opacity:0.5;fill-rule:evenodd;stroke-width:3.5;stroke-linecap:square;stroke-miterlimit:4;stroke-dasharray:none" /><path
           id="Fusion_f0008"
           d="m 1747.0248,327.72046 27.9682,143.87688 v 0 z"
           stroke="#191919"
           stroke-width="0.35 px"
           style="fill:#cccccc;fill-opacity:0.5;fill-rule:evenodd;stroke-width:3.5;stroke-linecap:square;stroke-miterlimit:4;stroke-dasharray:none" /><path
           id="Fusion_f0009"
           d="m 1830.1675,255.52801 c -38.2976,6.096 -89.4927,31.29845 -83.1427,72.19245 v 0 c -6.35,-40.894 44.8451,-66.09645 83.1427,-72.19245 z"
           stroke="#191919"
           stroke-width="0.35 px"
           style="fill:#cccccc;fill-opacity:0.5;fill-rule:evenodd;stroke-width:3.5;stroke-linecap:square;stroke-miterlimit:4;stroke-dasharray:none" /><path
           id="Fusion_f0010"
           d="m 1940.4317,309.20668 c -10.1882,-52.23934 -71.9667,-59.77467 -110.2642,-53.67867 v 0 c 38.2975,-6.096 100.076,1.43933 110.2642,53.67867 z"
           stroke="#191919"
           stroke-width="0.35 px"
           style="fill:#cccccc;fill-opacity:0.5;fill-rule:evenodd;stroke-width:3.5;stroke-linecap:square;stroke-miterlimit:4;stroke-dasharray:none" /><path
           id="Fusion_f0011"
           d="m 1965.8881,432.08623 -25.4564,-122.87955 v 0 z"
           stroke="#191919"
           stroke-width="0.35 px"
           style="fill:#cccccc;fill-opacity:0.5;fill-rule:evenodd;stroke-width:3.5;stroke-linecap:square;stroke-miterlimit:4;stroke-dasharray:none" /><path
           id="Fusion_f0012"
           d="m 1990.385,436.63001 c -6.5757,10.10356 -22.0415,7.25311 -24.4969,-4.54378 v 0 c 2.4554,11.79689 17.9212,14.64734 24.4969,4.54378 z"
           stroke="#191919"
           stroke-width="0.35 px"
           style="fill:#cccccc;fill-opacity:0.5;fill-rule:evenodd;stroke-width:3.5;stroke-linecap:square;stroke-miterlimit:4;stroke-dasharray:none" /><path
           id="Fusion_f0013"
           d="m 2036.6413,208.50979 c 25.908,58.89978 -10.2447,172.69178 -46.2563,228.12022 v 0 c 36.0116,-55.42844 72.1643,-169.22044 46.2563,-228.12022 z"
           stroke="#191919"
           stroke-width="0.35 px"
           style="fill:#cccccc;fill-opacity:0.5;fill-rule:evenodd;stroke-width:3.5;stroke-linecap:square;stroke-miterlimit:4;stroke-dasharray:none" /><path
           id="Fusion_f0014"
           d="m 1914.439,127.56846 c 60.198,10.10355 103.8578,39.116 122.2023,80.94133 v 0 c -18.3445,-41.82533 -62.0043,-70.83778 -122.2023,-80.94133 z"
           stroke="#191919"
           stroke-width="0.35 px"
           style="fill:#cccccc;fill-opacity:0.5;fill-rule:evenodd;stroke-width:3.5;stroke-linecap:square;stroke-miterlimit:4;stroke-dasharray:none" /><path
           id="Fusion_f0015"
           d="m 1889.6599,108.54668 c 5.842,9.79311 14.7602,15.38111 24.7791,19.02178 v 0 c -10.0189,-3.64067 -18.9371,-9.22867 -24.7791,-19.02178 z"
           stroke="#191919"
           stroke-width="0.35 px"
           style="fill:#cccccc;fill-opacity:0.5;fill-rule:evenodd;stroke-width:3.5;stroke-linecap:square;stroke-miterlimit:4;stroke-dasharray:none" /><path
           id="Fusion_f0016"
           d="m 1832.397,9.45846 v 0 l 57.2629,99.08822 v 0 z"
           stroke="#191919"
           stroke-width="0.35 px"
           style="fill:#cccccc;fill-opacity:0.5;fill-rule:evenodd;stroke-width:3.5;stroke-linecap:square;stroke-miterlimit:4;stroke-dasharray:none" /><path
           id="Fusion_f0019"
           d="m 1597.372,9.45846 c -85.7187,-148.32842 -248.7652,-149.18685 -334.4147,-0.81845 v 0 c 72.8132,-126.13252 261.5426,-125.28008 334.4147,0.81845 z"
           stroke="#191919"
           stroke-width="0.35 px"
           style="fill:#cccccc;fill-opacity:0.5;fill-rule:evenodd;stroke-width:3.5;stroke-linecap:square;stroke-miterlimit:4;stroke-dasharray:none" /><path
           id="Fusion_f0020"
           d="m 1515.4925,8.64001 v 0 c 73.0914,-126.61432 243.7541,-125.76175 316.9045,0.81845 v 0 C 1746.5447,-139.1012 1601.2755,-139.9597 1515.4925,8.64001 Z"
           stroke="#191919"
           stroke-width="0.35 px"
           style="fill:#cccccc;fill-opacity:0.5;fill-rule:evenodd;stroke-width:3.5;stroke-linecap:square;stroke-miterlimit:4;stroke-dasharray:none" /><path
           id="Fusion_f0023"
           d="M 1190.1157,134.82157 1262.9573,8.64001 v 0 z"
           stroke="#191919"
           stroke-width="0.35 px"
           style="fill:#cccccc;fill-opacity:0.5;fill-rule:evenodd;stroke-width:3.5;stroke-linecap:square;stroke-miterlimit:4;stroke-dasharray:none" /><path
           id="Fusion_f0024"
           d="m 1515.4925,8.64001 -72.8416,126.18156 v 0 z"
           stroke="#191919"
           stroke-width="0.35 px"
           style="fill:#cccccc;fill-opacity:0.5;fill-rule:evenodd;stroke-width:3.5;stroke-linecap:square;stroke-miterlimit:4;stroke-dasharray:none" /><path
           id="Fusion_f0025"
           d="M 1379.4868,244.23912 1190.1157,134.82157 v 0 z"
           stroke="#191919"
           stroke-width="0.35 px"
           style="fill:#cccccc;fill-opacity:0.5;fill-rule:evenodd;stroke-width:3.5;stroke-linecap:square;stroke-miterlimit:4;stroke-dasharray:none" /><path
           id="Fusion_f0026"
           d="m 1442.6509,134.82157 -63.1641,109.41755 v 0 z"
           stroke="#191919"
           stroke-width="0.35 px"
           style="fill:#cccccc;fill-opacity:0.5;fill-rule:evenodd;stroke-width:3.5;stroke-linecap:square;stroke-miterlimit:4;stroke-dasharray:none" /></g></g></g></svg>
